<svg xmlns="http://www.w3.org/2000/svg" width="640" height="80" viewBox="0 0 640 80">
  <g transform="translate(0.5,0.5)" text-anchor="middle" font-size="14" font-family="sans-serif" font-weight="normal">
    <g transform="translate(4,21)">
      <g stroke="black" stroke-width="1" stroke-linecap="round">
        <line x2="631"/>
        <line x2="631" y1="41" y2="41"/>
        <line y2="41"/>
        <line x1="631" x2="631" y2="41"/>
        <line x1="552" x2="552" y2="41"/>
        <line x1="473" x2="473" y2="41"/>
        <line x1="394" x2="394" y2="41"/>
        <line x1="316" x2="316" y2="41"/>
        <line x1="237" x2="237" y2="41"/>
        <line x1="158" x2="158" y2="5"/>
        <line x1="158" x2="158" y1="41" y2="36"/>
        <line x1="79" x2="79" y2="5"/>
        <line x1="79" x2="79" y1="41" y2="36"/>
      </g>
      <g>
        <g>
          <rect width="237" height="41" style="fill-opacity:0.1"/>
        </g>
        <g transform="translate(39,-11)">
          <g transform="translate(552)">
            <text y="6">0</text>
          </g>
          <g transform="translate(473)">
            <text y="6">1</text>
          </g>
          <g transform="translate(394)">
            <text y="6">2</text>
          </g>
          <g transform="translate(316)">
            <text y="6">3</text>
          </g>
          <g transform="translate(237)">
            <text y="6">4</text>
          </g>
          <g transform="translate(158)">
            <text y="6">5</text>
          </g>
          <g transform="translate(0)">
            <text y="6">7</text>
          </g>
        </g>
        <g transform="translate(39,20)">
          <g transform="translate(552)">
            <text y="6">
              <tspan>PWR</tspan>
            </text>
          </g>
          <g transform="translate(473)">
            <text y="6">
              <tspan>EMG(L)</tspan>
            </text>
          </g>
          <g transform="translate(394)">
            <text y="6">
              <tspan>EMG(R)</tspan>
            </text>
          </g>
          <g transform="translate(316)">
            <text y="6">
              <tspan>BMP(L)</tspan>
            </text>
          </g>
          <g transform="translate(237)">
            <text y="6">
              <tspan>BMP(R)</tspan>
            </text>
          </g>
        </g>
        <g transform="translate(39,49)">
          <g transform="translate(552)">
            <text y="6">
              <tspan>1:ON</tspan>
            </text>
          </g>
          <g transform="translate(473)">
            <text y="6">
              <tspan>1:ON</tspan>
            </text>
          </g>
          <g transform="translate(394)">
            <text y="6">
              <tspan>1:ON</tspan>
            </text>
          </g>
          <g transform="translate(316)">
            <text y="6">
              <tspan>1:ON</tspan>
            </text>
          </g>
          <g transform="translate(237)">
            <text y="6">
              <tspan>1:ON</tspan>
            </text>
          </g>
        </g>
      </g>
    </g>
  </g>
</svg>

