<svg xmlns="http://www.w3.org/2000/svg" width="640" height="160" viewBox="0 0 640 160">
  <g transform="translate(0.5,0.5)" text-anchor="middle" font-size="14" font-family="sans-serif" font-weight="normal">
    <g transform="translate(4,21)">
      <g stroke="black" stroke-width="1" stroke-linecap="round">
        <line x2="631"/>
        <line x2="631" y1="51" y2="51"/>
        <line y2="51"/>
        <line x1="631" x2="631" y2="51"/>
        <line x1="552" x2="552" y2="51"/>
        <line x1="473" x2="473" y2="51"/>
        <line x1="394" x2="394" y2="6"/>
        <line x1="394" x2="394" y1="51" y2="45"/>
        <line x1="316" x2="316" y2="6"/>
        <line x1="316" x2="316" y1="51" y2="45"/>
        <line x1="237" x2="237" y2="6"/>
        <line x1="237" x2="237" y1="51" y2="45"/>
        <line x1="158" x2="158" y2="6"/>
        <line x1="158" x2="158" y1="51" y2="45"/>
        <line x1="79" x2="79" y2="51"/>
      </g>
      <g>
        <g/>
        <g transform="translate(39,-11)">
          <g transform="translate(552)">
            <text y="6">0</text>
          </g>
          <g transform="translate(473)">
            <text y="6">1</text>
          </g>
          <g transform="translate(394)">
            <text y="6">2</text>
          </g>
          <g transform="translate(79)">
            <text y="6">6</text>
          </g>
          <g transform="translate(0)">
            <text y="6">7</text>
          </g>
        </g>
        <g transform="translate(39,25)">
          <g transform="translate(552)">
            <text y="6">
              <tspan>MANUAL</tspan>
            </text>
          </g>
          <g transform="translate(473)">
            <text y="6">
              <tspan>AUTO</tspan>
            </text>
          </g>
          <g transform="translate(237)">
            <text y="6">
              <tspan>ShutDown Reason</tspan>
            </text>
          </g>
          <g transform="translate(0)">
            <text y="6">
              <tspan>ShutDown</tspan>
            </text>
          </g>
        </g>
        <g transform="translate(39,59)">
          <g transform="translate(552)">
            <text y="6">
              <tspan>1:charging</tspan>
            </text>
          </g>
          <g transform="translate(473)">
            <text y="6">
              <tspan>1:charging</tspan>
            </text>
          </g>
          <g>
            <g transform="translate(237)">
              <text y="6">
                <tspan>0:normal</tspan>
              </text>
            </g>
            <g transform="translate(237,14)">
              <text y="6">
                <tspan>1:switch</tspan>
              </text>
            </g>
            <g transform="translate(237,28)">
              <text y="6">
                <tspan>2:ros</tspan>
              </text>
            </g>
            <g transform="translate(237,42)">
              <text y="6">
                <tspan>3:main temp</tspan>
              </text>
            </g>
            <g transform="translate(237,56)">
              <text y="6">
                <tspan>4:power temp</tspan>
              </text>
            </g>
            <g transform="translate(237,70)">
              <text y="6">
                <tspan>5:bmu</tspan>
              </text>
            </g>
          </g>
          <g>
            <g transform="translate(0)">
              <text y="6">
                <tspan>0:normal</tspan>
              </text>
            </g>
            <g transform="translate(0,14)">
              <text y="6">
                <tspan>1:waiting</tspan>
              </text>
            </g>
          </g>
        </g>
      </g>
    </g>
  </g>
</svg>

