<svg xmlns="http://www.w3.org/2000/svg" width="640" height="80" viewBox="0 0 640 80">
  <g transform="translate(0.5,0.5)" text-anchor="middle" font-size="14" font-family="sans-serif" font-weight="normal">
    <g transform="translate(4,21)">
      <g stroke="black" stroke-width="1" stroke-linecap="round">
        <line x2="631"/>
        <line x2="631" y1="27" y2="27"/>
        <line y2="27"/>
        <line x1="631" x2="631" y2="27"/>
        <line x1="552" x2="552" y2="27"/>
        <line x1="473" x2="473" y2="27"/>
        <line x1="394" x2="394" y2="3"/>
        <line x1="394" x2="394" y1="27" y2="24"/>
        <line x1="316" x2="316" y2="3"/>
        <line x1="316" x2="316" y1="27" y2="24"/>
        <line x1="237" x2="237" y2="3"/>
        <line x1="237" x2="237" y1="27" y2="24"/>
        <line x1="158" x2="158" y2="3"/>
        <line x1="158" x2="158" y1="27" y2="24"/>
        <line x1="79" x2="79" y2="27"/>
      </g>
      <g>
        <g>
          <rect x="79" width="394" height="27" style="fill-opacity:0.1"/>
        </g>
        <g transform="translate(39,-11)">
          <g transform="translate(552)">
            <text y="6">0</text>
          </g>
          <g transform="translate(473)">
            <text y="6">1</text>
          </g>
          <g transform="translate(394)">
            <text y="6">2</text>
          </g>
          <g transform="translate(79)">
            <text y="6">6</text>
          </g>
          <g transform="translate(0)">
            <text y="6">7</text>
          </g>
        </g>
        <g transform="translate(39,13)">
          <g transform="translate(552)">
            <text y="6">
              <tspan>MANUAL</tspan>
            </text>
          </g>
          <g transform="translate(473)">
            <text y="6">
              <tspan>AUTO</tspan>
            </text>
          </g>
          <g transform="translate(0)">
            <text y="6">
              <tspan>ShutDown</tspan>
            </text>
          </g>
        </g>
        <g transform="translate(39,35)">
          <g transform="translate(552)">
            <text y="6">
              <tspan>1:charging</tspan>
            </text>
          </g>
          <g transform="translate(473)">
            <text y="6">
              <tspan>1:charging</tspan>
            </text>
          </g>
          <g>
            <g transform="translate(0)">
              <text y="6">
                <tspan>0:normal</tspan>
              </text>
            </g>
            <g transform="translate(0,14)">
              <text y="6">
                <tspan>1:waiting</tspan>
              </text>
            </g>
          </g>
        </g>
      </g>
    </g>
  </g>
</svg>

